<svg width="14" height="16" viewBox="0 0 14 16" fill="none" xmlns="http://www.w3.org/2000/svg">
    <path fill-rule="evenodd" clip-rule="evenodd"
          d="M10 1.25V2H4V1.25C4 0.8375 3.6625 0.5 3.25 0.5C2.8375 0.5 2.5 0.8375 2.5 1.25V2H1.75C0.9175 2 0.2575 2.675 0.2575 3.5L0.25 14C0.25 14.825 0.9175 15.5 1.75 15.5H12.25C13.075 15.5 13.75 14.825 13.75 14V3.5C13.75 2.675 13.075 2 12.25 2H11.5V1.25C11.5 0.8375 11.1625 0.5 10.75 0.5C10.3375 0.5 10 0.8375 10 1.25ZM10 8.74997H7.75C7.3375 8.74997 7 9.08747 7 9.49997V11.75C7 12.1625 7.3375 12.5 7.75 12.5H10C10.4125 12.5 10.75 12.1625 10.75 11.75V9.49997C10.75 9.08747 10.4125 8.74997 10 8.74997ZM2.49999 14H11.5C11.9125 14 12.25 13.6625 12.25 13.25V5.75003H1.74999V13.25C1.74999 13.6625 2.08749 14 2.49999 14Z"
          fill="#403D3D"/>
</svg>
