<svg width="9" height="11" viewBox="0 0 9 11" fill="none" xmlns="http://www.w3.org/2000/svg">
<path d="M0.2 0.311968L4.37143 2.22822L4.37143 10.2196L0.2 8.78237L0.2 0.311968Z" fill="#6B6867" stroke="#6B6867" stroke-width="0.4"/>
<path d="M3.42871 5V6" stroke="white" stroke-width="0.4" stroke-linecap="round"/>
<path d="M0.286133 0.25H5.7147" stroke="#6B6867" stroke-width="0.4" stroke-linecap="round"/>
<path d="M5.71387 3V0.25" stroke="#6B6867" stroke-width="0.4" stroke-linecap="round"/>
<path d="M0.286133 8.75H5.7147" stroke="#6B6867" stroke-width="0.4" stroke-linecap="round"/>
<path d="M5.71387 6.75V8.75" stroke="#6B6867" stroke-width="0.4" stroke-linecap="round"/>
<path d="M8.14128 5.14142C8.21939 5.06332 8.21939 4.93668 8.14128 4.85858L6.86849 3.58579C6.79038 3.50768 6.66375 3.50768 6.58565 3.58579C6.50754 3.66389 6.50754 3.79052 6.58565 3.86863L7.71702 5L6.58565 6.13137C6.50754 6.20948 6.50754 6.33611 6.58565 6.41421C6.66375 6.49232 6.79038 6.49232 6.86849 6.41421L8.14128 5.14142ZM4.57129 5.2H7.99986V4.8H4.57129V5.2Z" fill="#6B6867"/>
</svg>
