<svg width="30" height="30" viewBox="0 0 30 30" fill="none" xmlns="http://www.w3.org/2000/svg">
<path fill-rule="evenodd" clip-rule="evenodd" d="M17.5 5C17.5 6.375 16.375 7.5 15 7.5C13.625 7.5 12.5 6.375 12.5 5C12.5 3.625 13.625 2.5 15 2.5C16.375 2.5 17.5 3.625 17.5 5ZM24.3875 7.79999C25.075 7.64999 25.7625 8.04999 25.9375 8.73749C26.1125 9.43749 25.6875 10.15 24.9875 10.3125C22.9875 10.7625 20.8125 11.075 18.75 11.25V26.25C18.75 26.9375 18.1875 27.5 17.5 27.5C16.8125 27.5 16.25 26.9375 16.25 26.25V20H13.75V26.25C13.75 26.9375 13.1875 27.5 12.5 27.5C11.8125 27.5 11.25 26.9375 11.25 26.25V11.25C9.18753 11.075 7.01253 10.7625 5.00003 10.3125C4.31253 10.15 3.88753 9.43749 4.06253 8.73749C4.23753 8.04999 4.92503 7.64999 5.61253 7.79999C8.58753 8.46249 11.9 8.74999 15 8.74999C18.1 8.74999 21.4125 8.46249 24.3875 7.79999Z" fill="#984AA1"/>
</svg>
