<svg width="34" height="34" viewBox="0 0 34 34" fill="none" xmlns="http://www.w3.org/2000/svg">
<path d="M25.9022 17.007C25.9025 16.7425 25.7976 16.4887 25.6105 16.3017C25.4235 16.1147 25.1697 16.0097 24.9052 16.01L17.9968 16.0029L17.9968 9.08743C17.9971 8.82291 17.8921 8.56914 17.7051 8.3821C17.5181 8.19505 17.2643 8.09011 16.9998 8.09041C16.4482 8.09041 16.0027 8.53588 16.0027 9.08743L16.0027 16.0029L9.08724 16.0029C8.5357 16.0029 8.09022 16.4484 8.09022 17C8.09022 17.5515 8.5357 17.997 9.08724 17.997L16.0027 17.997L16.0027 24.9125C16.0027 25.464 16.4482 25.9095 16.9998 25.9095C17.5513 25.9095 17.9968 25.464 17.9968 24.9125V17.997L24.9123 17.997C25.4497 17.997 25.9022 17.5444 25.9022 17.007Z" fill="#4F5FAB"/>
<circle cx="16.9998" cy="17" r="15" stroke="#4F5FAB" stroke-width="2"/>
</svg>
